# xmcd CD database file
#
# Track frame offsets:
#	150
#	16239
#	32818
#	51975
#	61681
#	91967
#	123101
#	138491
#	152171
#	182611
#	207908
#
# Disc length: 3008 seconds
#
# Revision: 0
# Processed by: cddbd v1.5.2PL0 Copyright (c) Steve Scherf et al.
# Submitted via: CDex 1.51
#
DISCID=8c0bbe0b
DTITLE=Van Morrison - Tupelo Honey [Bonus Tracks]
DYEAR=2008
DGENRE=Blues
TTITLE0=Wild Night
TTITLE1=(Straight To Your Heart) Like A Cannonball
TTITLE2=Old Old Woodstock
TTITLE3=Starting A New Life
TTITLE4=You're My Woman
TTITLE5=Tupelo Honey
TTITLE6=I Wanna Roo You (Scottish Derivative)
TTITLE7=When That Evening Sun Goes Down
TTITLE8=Moonshine Whiskey
TTITLE9=Wild Night (Alternative Previously Unreleased - Bonus Track)
TTITLE10=Down By The Riverside (Alternative Previously Unreleased - Bonus Track)
EXTD=YEAR: 2008
EXTT0=
EXTT1=
EXTT2=
EXTT3=
EXTT4=
EXTT5=
EXTT6=
EXTT7=
EXTT8=
EXTT9=
EXTT10=
PLAYORDER=
